# File created by Blade
# Date/Time:  Fri Jan 16 19:18:57 2015
# Frame Rate: 120.000 fps
#------------------------------------------------------
:FULLY-SPECIFIED
:DEGREES
795
root 19.878142 35.716490 -22.096547 -166.840467 -0.952122 -177.947411
Spine -26.964477 -5.819592 1.921175
Head 20.192115 -6.035798 21.337487
LeftShoulder -24.724690 -68.837057 84.126442
LeftArm 64.636348 -43.222863 -25.017367
LeftForeArm -67.548764 -0.000000 105.773424
LeftHand 7.798745 -0.000000 -1.869586
LeftHandThumb1 -26.253704 0.000000 33.147579
RightShoulder -16.963435 11.181434 -31.000871
RightArm 38.040732 75.854385 7.079181
RightForeArm 42.784470 -0.000000 89.623709
RightHand 5.042338 -0.000000 8.493439
RightHandThumb1 -24.326973 -0.000000 -32.862282
LeftUpLeg -4.443771 9.351927 0.503203
LeftLeg -6.985552 -0.000000 0.000000
LeftFoot -19.626025 26.238984 -14.174630
LeftToeBase 25.678976 -0.000000 -0.000000
RightUpLeg -5.156761 -6.097681 2.043937
RightLeg -3.514287 -0.000000 0.000000
RightFoot -20.240637 -23.560385 19.335680
RightToeBase 22.533624 -0.000000 -0.000000
796
root 19.877222 35.716404 -22.093960 -166.839921 -0.950004 -177.957629
Spine -26.947668 -5.777506 1.908252
Head 20.218120 -6.042839 21.221829
LeftShoulder -24.763337 -68.841447 84.121505
LeftArm 64.652942 -43.202679 -25.024175
LeftForeArm -67.501197 0.000000 105.749475
LeftHand 7.784620 0.000000 -2.021744
LeftHandThumb1 -26.253704 0.000000 33.147579
RightShoulder -16.957284 11.183093 -31.094725
RightArm 37.908886 75.863835 7.013264
RightForeArm 42.692915 -0.000000 89.646118
RightHand 5.080500 -0.000000 8.558028
RightHandThumb1 -24.326973 -0.000000 -32.862282
LeftUpLeg -4.443069 9.353195 0.490994
LeftLeg -6.994692 -0.000000 0.000000
LeftFoot -19.614755 26.235573 -14.174293
LeftToeBase 25.726260 -0.000000 -0.000000
RightUpLeg -5.170306 -6.173687 2.044850
RightLeg -3.500154 -0.000000 0.000000
RightFoot -20.237345 -23.539561 19.309078
RightToeBase 22.451850 -0.000000 -0.000000
797
root 19.877906 35.716914 -22.090814 -166.834494 -0.959280 -177.958394
Spine -26.935273 -5.740937 1.904406
Head 20.241386 -6.039413 21.117664
LeftShoulder -24.797707 -68.843681 84.106977
LeftArm 64.649496 -43.187767 -25.000725
LeftForeArm -67.445690 -0.000000 105.730681
LeftHand 7.755636 -0.000000 -2.103265
LeftHandThumb1 -26.253704 0.000000 33.147579
RightShoulder -16.942955 11.204364 -31.182757
RightArm 37.654020 75.858197 6.789929
RightForeArm 42.699258 -0.000000 89.641245
RightHand 5.113649 -0.000000 8.581800
RightHandThumb1 -24.326973 -0.000000 -32.862282
LeftUpLeg -4.454197 9.338471 0.493347
LeftLeg -6.995809 -0.000000 0.000000
LeftFoot -19.598397 26.237828 -14.181317
LeftToeBase 25.664801 -0.000000 -0.000000
RightUpLeg -5.168157 -6.213988 2.050025
RightLeg -3.525755 -0.000000 0.000000
RightFoot -20.181291 -23.444745 19.416357
RightToeBase 22.131821 -0.000000 -0.000000
798
root 19.877831 35.716901 -22.087949 -166.833936 -0.973345 -177.972985
Spine -26.915793 -5.707347 1.887246
Head 20.268454 -6.014435 21.009520
LeftShoulder -24.822258 -68.851925 84.088124
LeftArm 64.596986 -43.195994 -24.927093
LeftForeArm -67.418671 -0.000000 105.738283
LeftHand 7.733599 -0.000000 -2.207303
LeftHandThumb1 -26.253704 0.000000 33.147579
RightShoulder -16.920141 11.197948 -31.258932
RightArm 37.444985 75.905125 6.595988
RightForeArm 42.633043 0.000000 89.653300
RightHand 5.061949 -0.000000 8.496541
RightHandThumb1 -24.326973 -0.000000 -32.862282
LeftUpLeg -4.459378 9.327484 0.478732
LeftLeg -7.000786 -0.000000 0.000000
LeftFoot -19.590074 26.234929 -14.194981
LeftToeBase 25.651611 -0.000000 -0.000000
RightUpLeg -5.177027 -6.282385 2.046710
RightLeg -3.520941 -0.000000 0.000000
RightFoot -20.168434 -23.384921 19.359195
RightToeBase 22.299279 -0.000000 -0.000000
799
root 19.877281 35.717109 -22.083372 -166.826990 -0.982034 -177.989650
Spine -26.897056 -5.666899 1.866784
Head 20.281520 -5.976211 20.903579
LeftShoulder -24.863178 -68.841545 84.065805
LeftArm 64.575783 -43.206938 -24.907224
LeftForeArm -67.349507 -0.000000 105.730292
LeftHand 7.708849 0.000000 -2.302231
LeftHandThumb1 -26.253704 0.000000 33.147579
RightShoulder -16.884856 11.139726 -31.272161
RightArm 37.395053 76.050422 6.476685
RightForeArm 42.593635 0.000000 89.564929
RightHand 5.094067 -0.000000 8.577298
RightHandThumb1 -24.326973 -0.000000 -32.862282
LeftUpLeg -4.479050 9.331181 0.458984
LeftLeg -6.995813 -0.000000 0.000000
LeftFoot -19.576789 26.175986 -14.190983
LeftToeBase 25.620967 -0.000000 -0.000000
RightUpLeg -5.184603 -6.298288 2.034986
RightLeg -3.531980 -0.000000 0.000000
RightFoot -20.175191 -23.444198 19.228813
RightToeBase 22.558794 -0.000000 -0.000000
